HIERARCHY
ROOT Hips
{
	OFFSET 0.00 0.00 0.00
	CHANNELS 6 Xposition Yposition Zposition Xrotation Yrotation Zrotation
	JOINT Spine
	{
		OFFSET 0.00000 7.53995 0.00000
		CHANNELS 3 Xrotation Yrotation Zrotation
		JOINT Head
		{
			OFFSET 0.00000 15.09381 0.00000
			CHANNELS 3 Xrotation Yrotation Zrotation
			End Site
			{
				OFFSET 0.00000 4.52755 0.00000
			}
		}
		JOINT LeftShoulder
		{
			OFFSET 0.00000 9.73893 0.00000
			CHANNELS 3 Xrotation Yrotation Zrotation
			JOINT LeftArm
			{
				OFFSET 7.08401 0.00000 0.00000
				CHANNELS 3 Xrotation Yrotation Zrotation
				JOINT LeftForeArm
				{
					OFFSET 10.25932 0.00000 0.00000
					CHANNELS 3 Yrotation Zrotation Xrotation
					JOINT LeftHand
					{
						OFFSET 9.89698 0.00000 0.00000
						CHANNELS 3 Xrotation Yrotation Zrotation
						JOINT LeftHandThumb1
						{
							OFFSET 0.00000 0.00000 0.00000
							CHANNELS 3 Xrotation Zrotation Yrotation
							End Site
							{
								OFFSET 0.00000 0.00000 3.93700
							}
						}
						End Site
						{
							OFFSET 3.93700 0.00000 0.00000
						}
					}
				}
			}
		}
		JOINT RightShoulder
		{
			OFFSET 0.00000 9.73893 0.00000
			CHANNELS 3 Xrotation Yrotation Zrotation
			JOINT RightArm
			{
				OFFSET -7.08401 0.00000 0.00000
				CHANNELS 3 Xrotation Yrotation Zrotation
				JOINT RightForeArm
				{
					OFFSET -10.25932 0.00000 0.00000
					CHANNELS 3 Yrotation Zrotation Xrotation
					JOINT RightHand
					{
						OFFSET -9.89698 0.00000 0.00000
						CHANNELS 3 Xrotation Yrotation Zrotation
						JOINT RightHandThumb1
						{
							OFFSET 0.00000 0.00000 0.00000
							CHANNELS 3 Xrotation Zrotation Yrotation
							End Site
							{
								OFFSET 0.00000 0.00000 3.93700
							}
						}
						End Site
						{
							OFFSET -3.93700 0.00000 0.00000
						}
					}
				}
			}
		}
	}
	JOINT LeftUpLeg
	{
		OFFSET 3.34548 0.00000 0.00000
		CHANNELS 3 Xrotation Yrotation Zrotation
		JOINT LeftLeg
		{
			OFFSET 0.00000 -19.11473 0.00000
			CHANNELS 3 Xrotation Yrotation Zrotation
			JOINT LeftFoot
			{
				OFFSET 0.00000 -16.04560 0.00000
				CHANNELS 3 Xrotation Yrotation Zrotation
				JOINT LeftToeBase
				{
					OFFSET 0.00000 -1.43467 5.35428
					CHANNELS 3 Xrotation Yrotation Zrotation
					End Site
					{
						OFFSET 0.00000 0.00000 2.95275
					}
				}
			}
		}
	}
	JOINT RightUpLeg
	{
		OFFSET -3.34548 0.00000 0.00000
		CHANNELS 3 Xrotation Yrotation Zrotation
		JOINT RightLeg
		{
			OFFSET 0.00000 -19.11473 0.00000
			CHANNELS 3 Xrotation Yrotation Zrotation
			JOINT RightFoot
			{
				OFFSET 0.00000 -16.04560 0.00000
				CHANNELS 3 Xrotation Yrotation Zrotation
				JOINT RightToeBase
				{
					OFFSET 0.00000 -1.43467 5.35428
					CHANNELS 3 Xrotation Yrotation Zrotation
					End Site
					{
						OFFSET 0.00000 0.00000 2.95275
					}
				}
			}
		}
	}
}
MOTION
Frames: 19
Frame Time: 0.008333
 -3.4572 36.4002 1.1028 2.5426 29.9031 3.3222 7.6875 5.1899 -5.0487 -4.7876 -1.3871 5.8861 -15.6658 -4.1208 9.9452 -13.4938 3.8088 -33.7553 -60.8021 -0.0000 -0.3973 -12.1368 8.1375 56.6469 33.1476 -0.0000 26.2537 14.6176 -0.7839 1.7711 -7.1715 25.6083 52.4883 34.5631 -0.0000 168.6686 -0.1073 1.4031 4.3737 32.8623 0.0000 -24.3270 -75.4701 12.4592 20.7338 97.8004 0.0000 0.0000 -2.1339 15.1506 -25.4843 15.5257 0.0000 -0.0000 -13.5832 -17.2115 0.8944 26.1917 -0.0000 0.0000 -21.9001 -15.4071 -7.0642 3.9189 -0.0000 -0.0000
 -3.4701 36.4039 1.1105 2.6265 30.2592 3.3218 7.6015 5.0397 -5.0673 -4.7828 -1.1815 5.8223 -15.7942 -4.2525 9.9461 -13.4794 3.4877 -33.8999 -60.6128 -0.0000 -0.3148 -12.0119 8.1304 56.3885 33.1476 -0.0000 26.2537 14.5756 -0.8169 1.7357 -7.0601 25.4009 52.5051 34.5199 -0.0000 168.6950 -0.0994 1.3226 4.2979 32.8623 0.0000 -24.3270 -75.6541 12.6411 20.9425 98.2845 0.0000 -0.0000 -2.1558 15.1790 -25.4898 15.4562 0.0000 0.0000 -13.6578 -17.3442 0.8365 26.1588 -0.0000 -0.0000 -21.9412 -15.5982 -7.0987 3.9479 -0.0000 0.0000
 -3.4851 36.4077 1.1209 2.7194 30.6099 3.3073 7.4949 4.9044 -5.0927 -4.8006 -1.0107 5.8138 -15.8505 -4.3866 9.9601 -13.5330 3.1931 -34.0487 -60.4635 -0.0000 -0.2882 -11.9616 8.0941 56.3922 33.1476 -0.0000 26.2537 14.5793 -0.8450 1.7107 -6.9621 25.2172 52.5018 34.4171 -0.0000 168.8349 -0.0963 1.2376 4.4495 32.8623 0.0000 -24.3270 -75.8606 12.8122 21.1958 98.7732 -0.0000 -0.0000 -2.2151 15.1896 -25.6063 15.5559 -0.0000 0.0000 -13.7217 -17.4294 0.8065 26.1037 -0.0000 0.0000 -21.9885 -15.8258 -7.1633 3.9458 -0.0000 0.0000
 -3.5011 36.4095 1.1310 2.8115 30.9475 3.2905 7.3928 4.7909 -5.1145 -4.7687 -0.8584 5.8002 -15.9177 -4.5323 9.9747 -13.5912 2.8636 -34.2180 -60.2686 -0.0000 -0.2252 -12.0118 8.0763 56.5636 33.1476 -0.0000 26.2537 14.5856 -0.8985 1.6715 -6.8488 25.0729 52.5136 34.3180 -0.0000 168.8114 -0.0943 1.2102 4.4555 32.8623 0.0000 -24.3270 -76.0851 12.9858 21.4904 99.3138 0.0000 0.0000 -2.2039 15.1794 -25.4718 15.4055 0.0000 0.0000 -13.7930 -17.5229 0.7779 26.0660 0.0000 0.0000 -22.0337 -16.0310 -7.2587 3.9300 0.0000 -0.0000
 -3.5183 36.4121 1.1397 2.9186 31.3177 3.2747 7.2820 4.6317 -5.1510 -4.8047 -0.7199 5.7877 -16.0463 -4.7174 10.0020 -13.5777 2.6081 -34.3839 -60.1027 -0.0000 -0.1702 -11.9578 8.0533 56.5156 33.1476 -0.0000 26.2537 14.5700 -0.9129 1.6352 -6.7111 24.8648 52.5254 34.2166 -0.0000 168.9071 -0.0907 1.1657 4.4477 32.8623 0.0000 -24.3270 -76.3364 13.1803 21.7856 99.8543 0.0000 -0.0000 -2.2432 15.1784 -25.3833 15.3492 0.0000 -0.0000 -13.9145 -17.6806 0.7179 26.0882 -0.0000 -0.0000 -22.0817 -16.2271 -7.3222 3.9402 -0.0000 0.0000
 -3.5348 36.4134 1.1521 3.0058 31.6982 3.2511 7.1886 4.4639 -5.1537 -4.8472 -0.5899 5.7372 -16.1605 -4.8684 10.0225 -13.6203 2.2985 -34.5693 -59.8781 -0.0000 -0.0578 -11.9248 8.0684 56.3917 33.1476 -0.0000 26.2537 14.5553 -0.9317 1.5734 -6.5578 24.6396 52.5643 34.1386 -0.0000 169.0401 -0.0977 1.2348 4.5247 32.8623 0.0000 -24.3270 -76.6009 13.3549 22.1047 100.4212 0.0000 0.0000 -2.3145 15.2751 -25.6656 15.7335 0.0000 -0.0000 -13.9850 -17.8114 0.6867 26.0696 -0.0000 0.0000 -22.1377 -16.4351 -7.3885 3.8977 0.0000 0.0000
 -3.5513 36.4161 1.1658 3.0871 32.0907 3.2391 7.0874 4.2882 -5.1741 -4.8382 -0.4240 5.7040 -16.2394 -5.0400 10.0257 -13.6693 1.9931 -34.7154 -59.6699 -0.0000 0.0589 -11.7994 8.0325 56.2212 33.1476 -0.0000 26.2537 14.5822 -0.9463 1.5406 -6.4029 24.4400 52.5587 34.0127 -0.0000 169.1195 -0.0863 1.1094 4.4477 32.8623 0.0000 -24.3270 -76.8706 13.5569 22.4435 101.0206 -0.0000 -0.0000 -2.2672 15.2692 -25.3211 15.5423 0.0000 -0.0000 -14.0484 -17.9420 0.6473 26.0404 0.0000 -0.0000 -22.1947 -16.6450 -7.4715 3.9175 -0.0000 -0.0000
 -3.5687 36.4180 1.1819 3.1570 32.5059 3.2120 7.0000 4.0726 -5.1755 -4.8466 -0.2940 5.6781 -16.3593 -5.2033 10.0555 -13.6985 1.7084 -34.8987 -59.4588 -0.0000 0.1371 -11.7196 8.0133 56.0993 33.1476 -0.0000 26.2537 14.6092 -0.9618 1.5052 -6.2325 24.2555 52.5539 33.9125 -0.0000 169.2584 -0.0862 1.0908 4.5186 32.8623 0.0000 -24.3270 -77.1438 13.7296 22.7913 101.6342 0.0000 0.0000 -2.3178 15.2348 -25.1540 15.3827 -0.0000 0.0000 -14.0944 -18.0722 0.6328 26.0156 0.0000 0.0000 -22.2516 -16.8971 -7.5680 3.9518 0.0000 -0.0000
 -3.5881 36.4195 1.1966 3.2638 32.9263 3.1954 6.8894 3.8890 -5.2273 -4.8806 -0.1973 5.6755 -16.4538 -5.4069 10.0810 -13.7424 1.3810 -35.0421 -59.2280 -0.0000 0.1846 -11.8255 8.0281 56.2955 33.1476 -0.0000 26.2537 14.6337 -1.0118 1.5054 -6.0306 24.0493 52.5388 33.8291 -0.0000 169.4462 -0.0845 1.0787 4.4781 32.8623 0.0000 -24.3270 -77.4692 13.9461 23.1702 102.2591 0.0000 0.0000 -2.3625 15.2926 -25.1959 15.4277 -0.0000 0.0000 -14.1917 -18.1578 0.5889 25.9999 0.0000 0.0000 -22.3253 -17.1517 -7.6396 3.9671 -0.0000 -0.0000
 -3.6038 36.4203 1.2212 3.2657 33.3819 3.1847 6.8742 3.6339 -5.1984 -4.9414 -0.0645 5.6272 -16.5559 -5.5595 10.0896 -13.7841 1.0354 -35.1772 -58.9802 -0.0000 0.2953 -11.6734 7.9968 56.0457 33.1476 -0.0000 26.2537 14.6874 -1.0570 1.4548 -5.9100 23.8610 52.5703 33.6701 -0.0000 169.5349 -0.0735 0.9776 4.3024 32.8623 0.0000 -24.3270 -77.7162 14.0871 23.5383 102.9013 -0.0000 0.0000 -2.3584 15.3477 -25.3073 15.4219 0.0000 -0.0000 -14.1573 -18.2904 0.5936 25.9642 0.0000 -0.0000 -22.4105 -17.4039 -7.8165 4.0553 -0.0000 -0.0000
 -3.6193 36.4202 1.2401 3.3069 33.8159 3.1698 6.8081 3.4163 -5.1860 -4.9704 0.0303 5.5782 -16.6067 -5.7597 10.0974 -13.8678 0.7402 -35.3177 -58.7405 -0.0000 0.3207 -11.6403 7.9806 56.0216 33.1476 -0.0000 26.2537 14.7746 -1.0954 1.3960 -5.7447 23.6700 52.5929 33.5456 -0.0000 169.6722 -0.0692 0.9165 4.3183 32.8623 0.0000 -24.3270 -78.0313 14.2686 23.9453 103.5725 0.0000 -0.0000 -2.3529 15.4296 -25.1672 15.3224 -0.0000 0.0000 -14.1870 -18.4242 0.5738 25.9675 -0.0000 -0.0000 -22.4695 -17.6645 -7.8161 3.9917 0.0000 -0.0000
 -3.6385 36.4197 1.2644 3.3419 34.2813 3.1639 6.7696 3.1720 -5.2229 -5.0517 0.1029 5.6083 -16.6756 -5.9488 10.1628 -13.9426 0.3686 -35.4691 -58.4625 -0.0000 0.3257 -11.5792 7.9608 55.9435 33.1476 -0.0000 26.2537 14.7497 -1.1355 1.4126 -5.4459 23.4431 52.5626 33.4489 -0.0000 169.8037 -0.0722 0.9268 4.4544 32.8623 0.0000 -24.3270 -78.3363 14.4153 24.3311 104.2351 -0.0000 -0.0000 -2.3562 15.5224 -25.2863 15.3013 0.0000 0.0000 -14.2082 -18.5393 0.5618 25.9674 -0.0000 -0.0000 -22.5558 -17.9680 -7.9061 4.0038 -0.0000 0.0000
 -3.6569 36.4185 1.2875 3.3522 34.7495 3.1827 6.7589 2.9249 -5.2693 -5.1264 0.2080 5.6530 -16.7253 -6.1523 10.2437 -14.0650 0.0197 -35.6452 -58.1536 -0.0000 0.3485 -11.4799 7.9188 55.8480 33.1476 -0.0000 26.2537 14.7899 -1.2017 1.4259 -5.2647 23.2280 52.5753 33.2901 -0.0000 170.0100 -0.0625 0.8121 4.4002 32.8623 0.0000 -24.3270 -78.6589 14.6003 24.7953 104.9228 0.0000 0.0000 -2.3887 15.5406 -25.2740 15.4379 -0.0000 -0.0000 -14.2264 -18.6386 0.5324 25.9960 0.0000 0.0000 -22.6624 -18.2676 -7.9998 4.0701 -0.0000 0.0000
 -3.6758 36.4178 1.3143 3.3753 35.2517 3.2004 6.7406 2.6372 -5.3293 -5.2422 0.2829 5.6852 -16.8290 -6.3566 10.3288 -14.1219 -0.3414 -35.8031 -57.8322 -0.0000 0.4000 -11.4201 7.9019 55.7616 33.1476 -0.0000 26.2537 14.8266 -1.2794 1.4583 -5.0211 23.0547 52.5634 33.1549 -0.0000 170.1431 -0.0636 0.8260 4.4032 32.8623 0.0000 -24.3270 -78.9676 14.7393 25.2100 105.5975 0.0000 -0.0000 -2.3814 15.4577 -25.3391 15.4356 -0.0000 0.0000 -14.2422 -18.7582 0.5003 26.0067 0.0000 0.0000 -22.7713 -18.5906 -8.1066 4.1837 -0.0000 0.0000
 -3.6943 36.4166 1.3428 3.4050 35.7614 3.1921 6.6883 2.3206 -5.3576 -5.2888 0.3717 5.7150 -16.8915 -6.5497 10.4193 -14.1994 -0.6935 -35.9626 -57.4948 -0.0000 0.4894 -11.3270 7.8917 55.5717 33.1476 -0.0000 26.2537 14.8552 -1.3275 1.4703 -4.8007 22.8139 52.5920 32.9678 -0.0000 170.2443 -0.0583 0.7839 4.2566 32.8623 0.0000 -24.3270 -79.3293 14.8780 25.6527 106.2691 -0.0000 -0.0000 -2.3618 15.4228 -25.2253 15.4484 0.0000 -0.0000 -14.2511 -18.8764 0.4934 26.0009 0.0000 -0.0000 -22.8820 -18.9328 -8.1995 4.1378 -0.0000 0.0000
 -3.7102 36.4146 1.3742 3.3904 36.2968 3.2101 6.6551 2.0136 -5.3728 -5.2260 0.3782 5.6509 -16.9094 -6.7934 10.4516 -14.2680 -1.0786 -36.0539 -57.1515 -0.0000 0.6607 -11.4227 7.9493 55.6093 33.1476 -0.0000 26.2537 14.9625 -1.4020 1.4889 -4.5990 22.5886 52.6125 32.7960 -0.0000 170.3296 -0.0557 0.7325 4.3491 32.8623 0.0000 -24.3270 -79.6824 15.0368 26.1179 106.9451 -0.0000 0.0000 -2.3551 15.3532 -25.0052 15.3557 -0.0000 0.0000 -14.2255 -18.8943 0.4969 26.0144 -0.0000 -0.0000 -23.0089 -19.3679 -8.2947 4.2037 -0.0000 0.0000
 -3.7281 36.4131 1.4030 3.3922 36.7926 3.2240 6.6572 1.7326 -5.4028 -5.3212 0.4118 5.6569 -16.9589 -6.9855 10.5124 -14.4052 -1.4726 -36.1981 -56.7994 -0.0000 0.6945 -11.3906 7.9259 55.6104 33.1476 -0.0000 26.2537 15.0137 -1.4893 1.5244 -4.3714 22.3755 52.6156 32.6155 -0.0000 170.4760 -0.0596 0.7953 4.2872 32.8623 0.0000 -24.3270 -80.0394 15.1508 26.5512 107.6067 0.0000 -0.0000 -2.3481 15.4316 -25.0399 15.5030 0.0000 -0.0000 -14.2220 -19.0525 0.4756 26.0286 0.0000 0.0000 -23.1141 -19.6543 -8.4251 4.2392 0.0000 -0.0000
 -3.7470 36.4104 1.4355 3.3989 37.3270 3.2622 6.6248 1.4083 -5.4980 -5.3425 0.4698 5.7775 -17.0036 -7.2028 10.6115 -14.5258 -1.8574 -36.3378 -56.3777 -0.0000 0.7772 -11.2422 7.8535 55.4942 33.1476 -0.0000 26.2537 15.0770 -1.5426 1.5838 -4.1640 22.0912 52.6747 32.3817 -0.0000 170.5797 -0.0428 0.6049 4.0510 32.8623 0.0000 -24.3270 -80.4415 15.3450 27.0507 108.2460 0.0000 0.0000 -2.3466 15.4285 -25.0286 15.6229 0.0000 -0.0000 -14.2341 -19.2236 0.4228 26.0532 0.0000 0.0000 -23.2439 -19.9505 -8.5376 4.2712 0.0000 -0.0000
 -3.7651 36.4076 1.4674 3.3818 37.8257 3.3255 6.6326 1.1252 -5.6142 -5.4155 0.5252 5.9161 -17.0422 -7.4476 10.7200 -14.6547 -2.2264 -36.4797 -56.0101 -0.0000 0.7947 -11.2853 7.8206 55.7106 33.1476 -0.0000 26.2537 15.1230 -1.6331 1.6590 -3.9233 21.8472 52.7070 32.1630 -0.0000 170.5654 -0.0483 0.6729 4.1040 32.8623 0.0000 -24.3270 -80.8248 15.5275 27.5653 108.8875 -0.0000 -0.0000 -2.3191 15.3926 -24.9806 15.3662 0.0000 0.0000 -14.2420 -19.2564 0.3804 26.1049 0.0000 -0.0000 -23.3875 -20.3306 -8.6417 4.2941 -0.0000 -0.0000
